<?xml version="1.0" encoding="UTF-8"?>
<!DOCTYPE svg PUBLIC "-//W3C//DTD SVG 1.1//EN" "http://www.w3.org/Graphics/SVG/1.1/DTD/svg11.dtd">
<!-- Creator: CorelDRAW (Versão OEM) -->
<svg xmlns="http://www.w3.org/2000/svg" xml:space="preserve" width="107.143mm" height="55.141mm" version="1.1" style="shape-rendering:geometricPrecision; text-rendering:geometricPrecision; image-rendering:optimizeQuality; fill-rule:evenodd; clip-rule:evenodd"
viewBox="0 0 10071.16 5183.09"
 xmlns:xlink="http://www.w3.org/1999/xlink"
 xmlns:xodm="http://www.corel.com/coreldraw/odm/2003">
 <defs>
  <style type="text/css">
   <![CDATA[
    .fil0 {fill:#4E0792}
    .fil1 {fill:#4E0792;fill-rule:nonzero}
   ]]>
  </style>
 </defs>
 <g id="Camada_x0020_1">
  <metadata id="CorelCorpID_0Corel-Layer"/>
  <path class="fil0" d="M-0 2398.81l0 -2392.61 167.62 0 1015.55 1695.87 269.5 473.27 16.43 0c-6.59,-116.13 -12.61,-231.7 -18.08,-346.73 -5.49,-115.03 -8.23,-229.52 -8.23,-343.45l0 -1478.96 154.48 0 0 2392.61 -167.62 0 -1012.25 -1692.57 -272.79 -476.55 -13.14 0c6.58,113.92 11.51,225.67 14.79,335.22 3.29,109.55 4.93,222.4 4.93,338.51l0 1495.38 -151.18 0z"/>
  <polygon class="fil1" points="2310.08,2392.61 2310.08,0 2692.83,0 2771.22,141.32 2467.83,141.32 2467.83,1051.69 3275.66,1050.85 3352.35,1189.12 2467.83,1189.73 2467.83,2254.57 3651,2254.57 3651,2392.61 "/>
  <path class="fil0" d="M804.11 5183.09c-100.78,0 -199.4,-14.79 -295.8,-44.37 -96.4,-29.58 -181.85,-80.52 -256.34,-152.82 -74.5,-72.31 -134.21,-170.35 -179.11,-294.14 -44.92,-123.79 -67.38,-278.81 -67.38,-465.05l0 -1478.95 157.76 0 0 1459.23c0,212.53 30.13,379.05 90.38,499.56 60.25,120.51 139.12,205.96 236.63,256.35 97.5,50.4 202.12,75.59 313.87,75.59 116.13,0 223.48,-25.19 322.09,-75.59 98.58,-50.39 178.57,-135.84 239.91,-256.35 61.34,-120.5 92.02,-287.03 92.02,-499.56l0 -1459.23 154.47 0 0 1478.95c0,186.24 -22.47,341.26 -67.38,465.05 -44.91,123.79 -105.72,221.83 -182.4,294.14 -76.69,72.3 -163.78,123.24 -261.27,152.82 -97.5,29.58 -196.64,44.37 -297.43,44.37z"/>
  <path class="fil0" d="M2618.19 5151.47c-66.86,-16.45 -129.83,-39.32 -188.9,-68.61 -134.74,-66.83 -248.13,-153.93 -340.16,-261.28l101.89 -108.46c87.63,98.59 192.26,177.48 313.86,236.64 60.75,29.54 123.54,51.72 188.39,66.5l-75.08 135.21zm577.09 -1039.29c-41.66,-21.54 -86.08,-42.52 -133.31,-62.94l-361.53 -161.05c-67.92,-32.86 -139.67,-72.84 -215.27,-119.95 -75.59,-47.11 -139.67,-108.46 -192.25,-184.06 -52.58,-75.58 -78.88,-172.54 -78.88,-290.85 0,-116.12 30.13,-218.01 90.38,-305.64 60.25,-87.64 142.96,-156.66 248.13,-207.06 105.18,-50.4 223.5,-75.59 354.94,-75.59 144.61,0 273.34,27.94 386.18,83.81 112.84,55.87 205.4,123.25 277.71,202.12l-95.31 105.16c-67.91,-72.3 -149.53,-130.91 -244.85,-175.82 -95.29,-44.92 -203.21,-67.38 -323.73,-67.38 -159.94,0 -288.11,38.9 -384.52,116.67 -96.4,77.78 -144.6,181.31 -144.6,310.58 0,94.22 21.92,171.45 65.74,231.71 43.8,60.25 98.59,107.9 164.32,142.96 65.74,35.06 125.99,65.73 180.76,92.02l361.53 161.04c42.87,18.83 84.26,39.15 124.14,60.98l-79.57 143.3z"/>
  <path class="fil1" d="M2816.66 5181.12l1483.16 -2671.09 -1391.78 -2509.43 906.76 0 625.6 1216.05c63.27,119.5 126.53,246.03 189.79,365.53 56.24,119.49 126.53,260.08 210.88,421.75l28.11 0c63.26,-161.67 126.52,-302.26 182.76,-421.75 56.23,-119.5 112.47,-246.03 175.73,-365.53l604.51 -1216.05 857.56 0 -1384.75 2544.57 1483.16 2635.95 -906.76 0 -681.84 -1286.34c-63.26,-133.56 -133.55,-267.11 -203.85,-407.7 -70.29,-133.55 -147.61,-281.16 -224.93,-435.81l-28.12 0c-70.29,154.64 -140.58,302.26 -203.84,435.81 -63.27,140.59 -133.56,274.14 -196.82,407.7l-660.74 1286.34 -864.59 0z"/>
  <g id="_2506733990432">
   <path class="fil1" d="M6249.11 2923.28c-44.8,0 -84.54,-8.45 -119.2,-26.21 -34.67,-16.91 -64.26,-38.89 -87.92,-66.78l26.21 -27.9c22.82,25.36 49.88,45.65 81.16,60.86 31.28,15.22 64.26,22.83 99.76,22.83 47.35,0 85.39,-11.83 113.29,-34.67 27.9,-22.82 41.43,-53.26 41.43,-89.61 0,-26.22 -5.08,-47.35 -15.22,-63.41 -10.15,-16.06 -23.68,-28.74 -39.74,-38.89 -16.9,-9.31 -35.5,-18.6 -56.64,-27.9l-92.99 -41.42c-17.76,-8.46 -35.51,-18.6 -54.95,-31.28 -19.45,-11.83 -36.36,-27.9 -49.88,-47.35 -13.53,-19.45 -20.28,-43.96 -20.28,-74.4 0,-29.59 7.6,-55.8 23.67,-78.62 15.22,-22.83 36.35,-40.58 63.41,-53.26 27.05,-12.69 57.49,-19.45 91.3,-19.45 37.2,0 70.17,6.76 99.76,21.13 28.74,14.37 52.41,32.13 71.01,52.42l-24.51 27.05c-17.76,-18.6 -38.04,-33.82 -62.56,-45.65 -24.51,-10.99 -52.41,-16.91 -83.69,-16.91 -41.42,0 -74.4,10.15 -98.91,29.59 -24.51,20.29 -37.19,47.35 -37.19,80.32 0,24.51 5.91,43.95 16.91,59.17 10.99,16.06 25.36,27.9 42.27,37.2 16.9,9.3 32.12,16.91 46.49,23.67l93 41.42c22.82,10.15 44.81,21.99 64.25,35.51 19.45,13.53 35.51,30.44 47.35,49.87 11.83,20.29 17.76,46.5 17.76,77.78 0,31.28 -7.61,59.18 -23.68,83.69 -16.06,25.36 -38.89,44.81 -68.48,59.18 -29.59,15.22 -63.4,21.98 -103.14,21.98z"/>
   <path class="fil1" d="M6782.27 2912.29l0 -249.4 -184.3 -366.06 43.96 0 93.84 193.61c10.99,22.82 21.14,44.8 32.13,65.94 10.99,21.98 21.98,44.81 33.82,67.63l3.37 0c12.68,-22.82 24.52,-45.65 35.51,-67.63 10.99,-21.14 21.98,-43.12 32.13,-65.94l93.84 -193.61 41.42 0 -184.3 366.06 0 249.4 -41.42 0z"/>
   <path class="fil1" d="M7370.38 2923.28c-44.8,0 -84.54,-8.45 -119.2,-26.21 -34.67,-16.91 -64.26,-38.89 -87.92,-66.78l26.21 -27.9c22.82,25.36 49.88,45.65 81.16,60.86 31.28,15.22 64.26,22.83 99.76,22.83 47.35,0 85.39,-11.83 113.29,-34.67 27.9,-22.82 41.43,-53.26 41.43,-89.61 0,-26.22 -5.08,-47.35 -15.22,-63.41 -10.15,-16.06 -23.68,-28.74 -39.74,-38.89 -16.9,-9.31 -35.5,-18.6 -56.64,-27.9l-92.99 -41.42c-17.76,-8.46 -35.51,-18.6 -54.95,-31.28 -19.45,-11.83 -36.36,-27.9 -49.88,-47.35 -13.53,-19.45 -20.28,-43.96 -20.28,-74.4 0,-29.59 7.6,-55.8 23.67,-78.62 15.22,-22.83 36.35,-40.58 63.41,-53.26 27.05,-12.69 57.49,-19.45 91.3,-19.45 37.2,0 70.17,6.76 99.76,21.13 28.74,14.37 52.41,32.13 71.01,52.42l-24.51 27.05c-17.76,-18.6 -38.04,-33.82 -62.56,-45.65 -24.51,-10.99 -52.41,-16.91 -83.69,-16.91 -41.42,0 -74.4,10.15 -98.91,29.59 -24.51,20.29 -37.19,47.35 -37.19,80.32 0,24.51 5.91,43.95 16.91,59.17 10.99,16.06 25.36,27.9 42.27,37.2 16.9,9.3 32.12,16.91 46.49,23.67l93 41.42c22.82,10.15 44.81,21.99 64.25,35.51 19.45,13.53 35.51,30.44 47.35,49.87 11.83,20.29 17.76,46.5 17.76,77.78 0,31.28 -7.61,59.18 -23.68,83.69 -16.06,25.36 -38.89,44.81 -68.48,59.18 -29.59,15.22 -63.4,21.98 -103.14,21.98z"/>
   <polygon class="fil1" points="7930.58,2912.29 7930.58,2333.18 7735.29,2333.18 7735.29,2296.83 8169,2296.83 8169,2333.18 7972.85,2333.18 7972.85,2912.29 "/>
   <polygon class="fil1" points="8408.8,2912.29 8408.8,2296.83 8744.43,2296.83 8744.43,2333.18 8449.38,2333.18 8449.38,2567.36 8697.08,2567.36 8697.08,2602.87 8449.38,2602.87 8449.38,2876.78 8753.72,2876.78 8753.72,2912.29 "/>
   <path class="fil1" d="M9226.87 2923.28c-38.04,0 -71.86,-7.6 -103.13,-22.82 -31.28,-14.37 -59.18,-36.36 -82.01,-64.26 -22.82,-27.9 -40.58,-60.86 -53.26,-100.6 -12.68,-39.73 -18.6,-83.69 -18.6,-131.88 0,-49.04 6.77,-93 19.45,-131.89 12.68,-38.89 30.44,-72.71 53.26,-100.6 22.83,-27.9 50.73,-49.04 82.85,-63.41 32.13,-14.37 67.64,-21.98 106.53,-21.98 36.35,0 67.63,7.6 94.68,22.82 27.05,15.22 48.19,32.13 64.26,50.73l-23.67 27.05c-16.06,-18.6 -35.51,-33.82 -58.33,-45.65 -22.83,-10.99 -49.04,-16.91 -76.94,-16.91 -44.81,0 -83.69,11 -116.67,33.82 -32.97,22.82 -58.33,55.8 -76.08,97.22 -17.76,41.42 -26.22,91.31 -26.22,147.95 0,57.49 8.46,107.36 26.22,149.63 17.75,42.27 42.27,75.24 75.24,98.07 32.13,23.68 70.17,35.51 114.98,35.51 31.28,0 60.03,-6.77 84.54,-19.45 24.52,-12.68 48.19,-32.13 71.01,-57.49l24.52 27.05c-23.68,27.05 -49.88,48.19 -78.63,63.41 -29.59,16.06 -64.25,23.67 -103.99,23.67z"/>
   <polygon class="fil1" points="9657.75,2912.29 9657.75,2296.83 9698.33,2296.83 9698.33,2566.51 10029.73,2566.51 10029.73,2296.83 10071.16,2296.83 10071.16,2912.29 10029.73,2912.29 10029.73,2602.87 9698.33,2602.87 9698.33,2912.29 "/>
  </g>
 </g>
</svg>
